<mxfile host="Electron" modified="2023-06-19T19:42:32.421Z" agent="Mozilla/5.0 (Windows NT 10.0; Win64; x64) AppleWebKit/537.36 (KHTML, like Gecko) draw.io/21.5.0 Chrome/112.0.5615.204 Electron/24.5.1 Safari/537.36" etag="wb0j_jty3PSddhAt56B4" version="21.5.0" type="device">
  <diagram name="Page-1" id="bf70crgTx-w09K1pwRnZ">
    <mxGraphModel dx="628" dy="2432" grid="1" gridSize="10" guides="1" tooltips="1" connect="1" arrows="1" fold="1" page="1" pageScale="1" pageWidth="850" pageHeight="1100" math="0" shadow="0">
      <root>
        <mxCell id="0" />
        <mxCell id="1" parent="0" />
        <mxCell id="cjDanuY9SotgmuhazIwL-7" value="" style="shape=image;verticalLabelPosition=bottom;labelBackgroundColor=default;verticalAlign=top;aspect=fixed;imageAspect=0;image=data:image/jpeg,/9j/4AAQSkZJRgABAQAAAQABAAD/2wCEAAoHCBISFRgREhIREhgYGhgYGBISGBESGBgYGBgaGRkYGBgcIS4lHB4rIRgYJjgmKy8xNTU1GiQ7QDszPy40NTEBDAwMEA8QHRISHjskJCQ0NDQ0NDQ0MTQ0NDQ1NTYxMTQ0NDExQDU0NDQ0MTQxNDQ0PzQxNDQ0NDE0NDQ0MTQxNP/AABEIAOEA4QMBIgACEQEDEQH/xAAbAAABBQEBAAAAAAAAAAAAAAAAAQMEBQYHAv/EAEkQAAIBAgIECAkKBAUEAwAAAAECAAMRBBIFBiExIkFRcXKRscEHIzJSYYGhstETFCRCYnOCkqLCU9Lh8BVDRGOzNIPD4jOTo//EABoBAQADAQEBAAAAAAAAAAAAAAABAgMEBQb/xAAtEQEBAAEDAQUHBAMAAAAAAAAAAQIDETESBSEyQVEEE0JhcYGRIiMzUhSh8P/aAAwDAQACEQMRAD8A7NCEIBCEIBCEIBCEICXheLCAl4XiwgJeF4sICXheLCAl4XiwgJeF4sIBCEIBCEIBCEIBCEIBCEIHkm20yEceOJGI5SQt/Vv649jj4t+iw6xaZ3TWkRhaD4grnCAHIDlvmYLvsbeVAvP8Q+wesRfn/wBhvUVnN18JNHjouPx3/ZHV8JGG/g1fUafeRN/8bW/rVfeY+rofz8eY3qKfGL8/HmVP/wA/5pz9fCNhOOlifUKJ/fHV8IeDO+niRzpSPY8j/H1v638HXj6t38+HmVP0fzRfnw/hv+j+aYhNf8Cd5rDnT4Ex1de8B59Qc9N+4SPcak+G/g68fVsvno8x/wBH80X54PMf9PxmQXXjRx/z2HPTr/yR1NctHn/UAc6VR2rI91nPhv4OqerVfPV81+qL88T7X5W+EzK62YA/6qn6847RHF1mwJ/1dD1uB2ytwynkneNF89p8rfkqfCHz2nyt+Sp8JQrp/Bndi8N/9lP4x5dMYU7sThz/ANyn8ZG1SuPnqcrfkqfCL88Tlb8r/CVS6QoHdWonmeme+ODEUzuqIeZl+MbUWXzynyn8r/CHzxPO9jfCQA4O4g+sT3YyNhLONpjaXQDlY5e2SAZVmUWrGMKYzE4IE/Jr4ymvFT8jMi8i8MbNwt6YGyhCEAhCEAhCEAhCEAhCECJpE2pn8I62AmH1/qWwNT0lB+tT3TbaUPizzp74PdOf+EZ7YS3nOg6lY9000ZvqSfOK5+GsvqdSU03JAPDttAO5R8ZfnDUzvpoedVPdKTVIWoE8rsfYo7peZp7mrv11yziKfWDRCOnylNFV0uSEULmXjFhxjeJkQJ0bNMhp7R/yb51HAc/lbjHePXyTq9l1Phy+zLUnnFroSjh69PhUqeddj7AL8jbOXtBk86Hw38JfUWHfMporGGi4f6p2MOVT8N82quCLg3B2gjkka2GWOXdbtTGyxX4jQVAqwRMrWOVsz7DxbzMgVI2HYRsI9M6BmmV09hclTMNz8L8X1u4+uaezZ99xy71dSd28VFohEdtPJE7emMt1ponRdOspZmdWDWIUra1rg7R/dpLbVun/ABH/AEfCRdX62VynE49q7ey80JaefrdWOVk4b4d8Ubat0/4j/lWNNq0vFV60H80vmaeC0y6sv+kX7lA2rh4qw/IR+6M4jQ9SmjVBW8kE2GcXtxb5oi0r9NVLUXPot1kCRzZLJ+IOl6qKRgsNckk0abEnfwlDbeuQdVBn0hi6nmgp+sD9kvNGUslGlTH1URfyoB3Sk8H65quMq+c62P46rH3hPndS75W/Ou2cNzCEJVIhCEAhCEAhCEAhCECBpY8Aelh2E905x4S6n0dF5al+pSO+dD0yeCnT/a05l4TH4FFeUuerJ8Zv7LN9bH6xTU8NQNXNmHT0lz+sjulpmlXobZQQei/WSe+Ts09zOb5X6uWcQ9mjWKorUQo248fIeIj0iJmi5oxm13iKx1eg1NijbwevkI9Ev9AYy6/JMdq7V9K8nqhpnCZ1+UUcJR1ryerf1yjoVCjB13g3E9CSa2Hzc9/Tk2maQdL0M9M23rwh6t46rx3D1xUUONxHVyiO3nNjLjlv6NLd4x1p5IkvHYfI5Xi3jmP929UjET0ptZvHOMPUyOr8hB9XH7JrC8yBmgwFbNTU8YGU+rZ8Jy+0Y77Vrp3yTC0bLTyWnhnnJ0td3pmlfpYZ0yee6L1sJKZ4xlz1sOm/NXpdQYXleO/0WdhZ8oJ80X6hKXwaJ4iq5+tVt1Ih7WMsdI1LU3sRmKOFFwCSVNgPXKnVrEvhcP8AJZFzlmYkm4F7AbBv2Dlnze1tdu8jbyHX0jSQ2LAt5i8JvWBu9dpQVMTUqeU7EeaOCvNYbxz3nqkANgAHoGyWmHqr1eizbSlRvIRVHK5ufyr8Yq4ytyUupx3yGkjYrTVCjsZwzeYnCP8AST0xHVVwMXW8ykfxuP2mN4jSj0xmdKSjlNW3akx2O1sqvspKKY848JvgJQYiu9Q5qjs55WJMnoiLm6ZofWCliXakoIdQTsuVIBANmsOUcUu5zrUBfpLH/ab36c6JM8ptV8bvCwiRZCyp02fIHpY9QA75yzwlvwqK8ises/8ArOn6cPCQeh+1Jyfwjvesg5EHvP8A0nX7DN9fH6s9Xw0ujzamg+wvZJOaRKJsqjkAHsjuee3tvXKfzRc8j54ueWmKtqRmlDpLC5GzKOC270HjEuA8broHUqeP2Hlm+lenLdnlN4gaIxWVsh3Nu9Df1l3mmWdCjFTsI/u8u8Hic634xsPPyzbVwniimN8jel6eZQ43rv5j/WUpmjqWIIO47DM9VQqSp4jLaN7tvRGU79zZlhomr5SfiHYe6VxjmEqZXB5dh9ctqTfGwxu1XhaeGaIzRtmnDY2iy0To4YhmDVBTC2ucrOTe+4Dm4zNRhdAYKmVfMzuhzK7lhlblAAtKfUpBUqsjXscl7cl2nSzoygf8tOqx654ntuvqY6lxl2jr0scbjLsyuIekrWLm53eUb+u09Ckd6lW5mX4yFrBTVMUEUZQAbDbxpfvM1FDQdAouxhwV3MeQcs4d7s16ZupkV/MPWJF0ppYUAtlDs19gOwWtvPHv4pYY/BCg+UElWpuVJtfZYMDbnXr9EyusG5Odu6TjlbUZYyRHxemK1XYzlR5qcEf1kMCIi7LnYJ7Dcgt29c2ZFCcuyBEBPUKtLqCPpDn/AGz7yzoAmC1AHjqnQ/cPhN7MM/E3w4LCEJVdQ6bbhqORe0/+s5Hr+98SByKo9gPfOsacPjf+2vvPOQ65NmxhHpQexR3Tu7On78vpuy1vDUoNFDRi8XNPakctPhooaMBp6DS8ilPBooaM5ouaXiKZx9HMMw3j2iQ8JiMjX4jsPxllmlXjKWU3G4+w8k308t501SzzXOeVuk6e0Py7D3f36J6wOIuMp3jdzR2uuZSv934pE/TkcxUEzwTFM8Eza1WRdpUzKG5RELSHganBI5D7D/ZjxacmWO1bRq9Qm+kfk7TOrZpyLUJvpP5PfE6zmnznaH89+zt0fDGF1oP01fTb3Jt8G10Q/YX3RMHrUfpqenL7k2+BbxadBPdE5LxF5zVXrE3jKY/26/bTmM1hOxOduwTX6wnxlP7uv20pkdNC5pg+ce6TjyZcKp9gC+s85/paIDGy9zc8c9AzdicBi3ngGF4Q1/g+HjKp+wvtY/CbuYXwd+VWP2afa83Uwz5bYeEsIQlV2Y0y3jm9AUey/fOQayNmxrdMexjOt6VPj3519xZxzStTNjHP2z3meh2bP3bfSMdbwpgaeg0YDRQ09qOWnw0XNGM0M0vFafzRc0YzRc8tEH888VVDAqY3niZ5aIQQxRvSJZLUBFxxyHikuMw3jsjeFq24J493PL3vm6s7hjFs1+Xb6+ORiZNxIzLzbZXky2OW8LD+FezW5ZMLSrDWN+STs0zznevi1Ooj/SfUvvrOtZpx7UR/pP4f3pOuZp832hP3r9I7tHwsLra1sanOvumbfR7eKp/dp7gmD1xb6ZT5190zbaObxVP7tPcE4vJpOVdrAfGU/u63bTmU0sdqdI9k1Wn/AC0P2KvbTmT0qdqdI9knHlGXCkBnsGNgxQZqxOXi3jd4Xgbjwc7659FP983Mw/g33Vz93++biZZctseCwhCVWY/STXrOftdgA7pxjEvfEufSfdE6/pCpw6p5Hf2M3wnFme9dz9pvYbT0ezfHb8mOtxFmHnrNIqvPYeezHNUjPFzyPni55pFT+eGeMZ4ueWiD2eGeM54meSg8XkOsuU3HqjueeG2i0mXY2OpVuLyHUFjaCPlMWvt2yeKGiZIpPskUmeqb8UjJMavUV/pQ6B9+nOwXnF9Rn+ljoN7yTspM+d7S/m+0dmj4WB11f6XS/D2H4zcaNbxNP7tPcEwevT/SqP4e8983GjD4ml92nuCcHk180LTx4SdCr205k9KnyOkeyajT7cNPu6vbTmU0qfI6fdJx5RlwpgYt40DPV5qyOXi3jd4XgdA8Gvk1+knY028xXg0Hi6x+2o6l/rNrMby1x4LCEJCzA467fKW3saludi1u2c1ran4wOzp8mczMbEtxm/EDOy4rQL5iabIQSSA91tc7rgG8iPobED6gbosn7iJto6+WlbcfNXLGZcuQvq9jl/yVfoug94ieG0VjF34Wt+ECp7t51psBWXfSf1KW928YdGXylZekrL2idePaWpOZFLo41yZqVVfLo1k6SVB2iM/OF3E29BuJ11KvI3UYr2bylVukqt2ibY9qeuP+1LofNyMVRyiL8pOo1NGYV9r4XDMeU00B6wLyLU1awD7ThVH3b1qfsDW9k1x7U0/OVW6GXq5xnhnm/qanYFtwxFPoVA3vKZGfUXDnyMTiF6aU37LTbHtHQvnZ9lboZMQXiF5rqmoTfUxlM+h6bp7QTIr6h4z6tTCPzVGU9TIJrj7ZoZcZRX3WU8mWqbdsQPstL+pqXpIbsOH9KVKDezPeQMRq3j6e1sHih0Ud/dvNpr6d4yl+8V6MvRVEzxntHMThqtPbUpVafLnR094SE1Uco6xJ65eEzGtTqPU+lr0H/bO3kzguo7/TE6L+7fund7zwO0f5vtHXpTbFzrX9x87o7vq39s3mij4il92nuiUOs+qFPG1aeIFZ6NRAFJUB1ZASQCCdhGZrH0zRYakKaLTW9lUKL7TYC22cK6q1gPDToVe2nMppU+R0+6ajWA8NOhV7acy2lT5HTHYZOPKMuFIDFvG7xbzRk93heeLxbyR0nwZjxNU/7g9xZtJjPBn/ANPUP+6fcT4zZzG8tZwWEISFiGLEMWAQhG6lRVF2IUcp2QPNWgjeUiN0lU9sh1NF0T/lIOiMnu2nmtpFjspr+J7+xd/XbmkCrSqP5buw829l/KNh9cBMTgcMmwuEPJnJPUxMrEpqXZVYsotlbdxC/EL7byxXAAbgBEfAcYuDyjZAr3pAcZjLNaT6mEqcTA9IW9okKrh6g+oDzN8YDRrqN94zV0lRTy6ip0rqOszzVp1P4b+rKe+VGkdHVK2wU3HSygdsC+pY2k3k1Kbczoe+S0rMPJZh0Se6Yqnqlx1GA+yg7z8JJ/wFE8hqiHlDGBslx1UfXb1nN2xutVFTZUp0KoO8VKVJr89xMmtGvT8ms7DkLMD2kR+hpGpfKXa/Icp7pMtnAtq+CwqjPTwmEpOLWqUaa02FzY2y7NouPXNIDMi+JcrtIIJsdm3l4uaaTGKzUnVfKam4XnKkCLbebuIB0zUcfKUKCVKfFUqVRSLjzqaBGup4ixW+/cQTM0ZpOniFLJmUqcr03sHRuRgCR6wSDxTM6s4mo9JEvRUrwKgqsicAFLNZt4AVwQNovzT3oGkUxLlScrkjbe+Wzlb8h4CSdld1rrCdqdGp/wCOZPSh8jpjsM1OsJ2p0X/ZMppQ+R0x2GRjynLhSXheeLwvNGRy8Lxu8LyR1TwZf9M/3zf8dObCYPweY1aeHZTvNVz+hB3TaUMUGmWXLXHhKhEvCQksIQgRcbihSXMdpJAVd12PF2nmBlZUrr5VRwzejcPQo4u2T9J4Ba65GZ1scwZCAQbEcYIOwkbeWVQ1Upny61d/RmVfdAgNVdKou6wkKpp+mN7r1iXVLVjCLvp5/S5L9snUtF0E8mkg9QgZH/Hk4jfmuYo08nGwHS4PbNoMNTH1F6hPLYSmd6KfUIGXoaUR9xU8xvJaVUaT8Rq7hKm00lU+cnBPWJXVtWnTbQrN0KvDH5t/tgONhgdoN5GqUCI0cRVoHLXQpyOOFTP4uL12ljSrJUHpgVT0pEr05e1cPK3E07QKTEbJV06RqVDbcLD17T3ydjHLN8nT2sd5G3KOXnmk1f0DlALDrgV1bR5SiXI3FfawHfL1G2DmHZJWstILhXAHHT/5EEqcW9qJNyOCu1SVI3XsRugRMToNS5emchJuV3C55DY25rfCS8BgBTOYnM1rcwNr85Nhc7NwsBG0UE2p4puixp1O0ZvbPSPWR1Wo1N1Ylbqr02HBZhsLEHyfRJ3RsiawnanRqdtOZPSh2J0x2GanWI7U6NTtpzI6Yeyq3I4PsMTkvCmvC8Woo8pdx4uMHkMazS6h28TNGwxJsNpO4CX+h9CsxDOLniHEPiZFuyZN0/VdagW1iAWJA5wPhOj6KpmwvKrQ+iQttk1FGkFFpRc5aEWEAhCEAhCEAhCEAhCEAhCEBupTVgVYAg7wRcGZjSGh3w5z4cM6cdIXLJ6U5V+z1TVwgYn/AB9QMpIvyHf1b5EK4nFG1NGRT9dhbqHxm7bDoTcopPKQLxwKBuAHNsgUGhtXKdEXbhNvJO039Jl+qgbALT1CBUa0D6M/PT/5ElFX/wDhPHwB2CX+sYvhqn4ffWUWHK1KYHEVANt42WMBrEOTsqYY1B9n5Op7GIPskWkaHyiCmlWm2Y8Blrotsj7bHgSacNUHkV25qio49mU+2Iq18yZxSKgkllLqfJI8kg8vLAr9Yt6dF+2nMfptuAOkOwzY6x7k5n7UmK06eAOkOwyZyi8KbNPdGmznKouf72mesDg3rNlQbONuIfEzfaB1cCgcHnJ3nnk2okVmg9AWsSLnl7hN5ovRIW2yTcBosIN0t1UDdKrPFGkFGyOwhAIQhAIQhAIQhAIQhAIQhAIQhAIQhAIQhAIQhAh6Rwvy1NqeYrmG8bbWNx2TLVtWMQm1HR+bNTPfNrCBgXpYyl5SVLcthUHs2xtdMMps6i/Ib0z1GdCjNbDI4syK3OAYHONMYoVFFltl5du8i/YJSrol8ZZFByhrlxx2BFh17506vq1hH30gOUKSoPOBvk+hgqVMWRAAOSBmdCasrTUDKBaafD4VUGwSRFgEIQgEIQgEIQgEIQgEIQgEIQgEIQgEIkICwiQgLCJCAsIkICwiQgLCJCAsIQgEIQgEIQgEIQgEIQgEIQgEIQgEIQgEIQgEIQgEIQgEIQgEIQgEIQgEIQgEIQgEIQgEIQgEIQgEIQgf/9k=;" vertex="1" parent="1">
          <mxGeometry x="45" y="340" width="70" height="70" as="geometry" />
        </mxCell>
        <mxCell id="cjDanuY9SotgmuhazIwL-10" value="" style="rounded=0;whiteSpace=wrap;html=1;" vertex="1" parent="1">
          <mxGeometry x="150" y="40" width="620" height="540" as="geometry" />
        </mxCell>
        <mxCell id="cjDanuY9SotgmuhazIwL-12" value="" style="shape=image;verticalLabelPosition=bottom;labelBackgroundColor=default;verticalAlign=top;aspect=fixed;imageAspect=0;image=data:image/png,iVBORw0KGgoAAAANSUhEUgAAAH0AAAB9CAMAAAC4XpwXAAAAZlBMVEX///8zMzMyMjIjIyMbGxvPz8/ExMQvLy8qKionJycgICD7+/vr6+vg4OAXFxd1dXXa2tqpqam+vr6wsLD19fU5OTltbW1lZWWWlpahoaFFRUWMjIyAgIBVVVVgYGBaWloAAAAQEBADXDhfAAAFe0lEQVRoge1a25aqMAydpkAv3OQqoMjw/z95CrSloKMo4MNZbBfOGhzZTROSnTA/PwcOHDhw4MCBP+F6TlKWRRkljvdlaru8QRtYmDHMefBLzqXtfonaLyqMKUEjgDJcFacvcNshYAJoDiCYhPbO3H7I2D21XABjob8neUT/5B74cbkbt98EAzfIQ7ybJ8QLgnon8x1K0TPLB1CI9yCPMZkRwYDZWYKj7ckTQT7ueB9j4q7LEKHzOIRgc/qEGxQA+JdcE9v3PM+3kyv7NZYmvB8k25LHAYyWEwsV09jyi8wy/ALWpr73rNFywFmZ3v1FGmV4/BuCNkx87o2OF2bXx1XFu7LRfFptwpsK17plYJD/7dOEEO17a23a8eLLOcNWazGmfU74s1x+IkTHXrtm7/2yCixGYXKTIZI9z2Qe6M2n549rrn9FjwoZQa+q2Alpev5h3HsFmeU1mc2f+Fwh1ttFbx+ROxV/nM7ZdcG3L0ytmHxS7ouWyII1lq7+RdASAedVRO4VC9/mTsPgod0CC/NnHGjj75PSC/Kcmwl7EnLZsku4NenLPgB7M+7cHE+DXMhFjEUxE1dbEHIDIv5OnBi4Yhni/YvhLL+UUXHJK4qtxbkzbeWmkffSbdwaNxnGoa0c5/pO4Sy+TKOqAi7fkFk+H1MbxZePW5SS9X7vMk5bP6iHD+HmTFuO6xVp2jbEjshbxSIzYq6CHHD+7s1iwqfmzUJwFb1O+a52l8gTq7qyNJvmSsLzl/53mHI6q9dYLlCpKqFWwV5mXW06yda2xGeKZiDt82zRO6tfa7BaEl6su/IM1lP6UgUqaVa34vGtykSKnCzhz/Ls2uUlz5QiX296N9jwnSisqOkBAo98b4tmgDN9k0CwnlytwT7/UpP+blOT7JdNGlP6Zml4Dj8PRlWIZwX/1ExaoO5YXMoWYpDZA1p7+gnretBpc7j1+MUehSa9jYnEvSgNZYYm2Xz+ZWea3ojoMOjshlHA9Yp9kxZoCkd3ePSmAi/kE+2oPm+2Z/8pldoBJj0fBYPdg+1AKBX6ScTlZQf2tFF7z4bLnywY1TJlWZ2HeZ0BbXcZOsVcbjCpuq13h0LQ2054k/QV0PVOTrTLxLHTucPW044pCZCyndJdhkxTlEquYkGWdpq79znCzTdGzKdWOb7opl9I2s7OK5XEMrhI9lc0HMr/MACqvjRcb4ZJI5D6x1MrQdsOl54gVFFeDZK3H4R81mN/gCtTle6nYDK9fc30nr2/xbJhGzrz8VdCrkMoJ8xi52s52RIh8C00ZCgogrJSOub96cKHSJVyE5RKSb3bYH8Ou5UlRWSbvtMRiW5bDfcMepYkMq3e+fOXyFPVWwHxf84q6haOYlYj4UgH3bAPsHaYuhx6iga46J5ywPA4ie2hZO5x4ZIcyMnoGAHv+vhOItEjQJZ3v6+ZJ76NmAzjIPFu9aKyGOv7fg8PJRyq2yWa94LazwDJBeGNO6cZ3BLL0WXXSUk/X+WESCzC2jPl2I3uIkVFVTHuofEZIoZkH4HjOXVA+5ur7xroWNOiACk93820wsixN4UTF3mFVffeKzrjqYp71iOqjp9xjjcFt3jXG0mzOwpijlpTRIzJPxrbKqOllgeoQ/YfaH4AMr4L8nYare5TLJ7KKJ/czbXGtTwHaMbpIsZDPZ1Wn9w/STtV43M21ceb3A9WAfenH5yaftj9wNV9TvUbfv/d15YrM+ceMX5qV/TvlF8f6cf0gunE90u4JxbDo1OzeQSv/xrt22dMzd1fZPsCv+swpLyKnghn54wtSmC25A3QTSQCfotfiHYvCSvGra3Bob7Gi5Ko651sZ1PYtp9+61+vDhw4cODAgQMHDhw4cODAgQP/F/4B4aQ+iHVqRAMAAAAASUVORK5CYII=;" vertex="1" parent="1">
          <mxGeometry x="45" y="160" width="70" height="70" as="geometry" />
        </mxCell>
        <mxCell id="cjDanuY9SotgmuhazIwL-13" value="" style="endArrow=classic;html=1;rounded=0;" edge="1" parent="1" source="cjDanuY9SotgmuhazIwL-51">
          <mxGeometry width="50" height="50" relative="1" as="geometry">
            <mxPoint x="80" y="310" as="sourcePoint" />
            <mxPoint x="80" y="240" as="targetPoint" />
          </mxGeometry>
        </mxCell>
        <mxCell id="cjDanuY9SotgmuhazIwL-14" value="Workstation" style="text;strokeColor=none;align=center;fillColor=none;html=1;verticalAlign=middle;whiteSpace=wrap;rounded=0;" vertex="1" parent="1">
          <mxGeometry x="50" y="410" width="60" height="30" as="geometry" />
        </mxCell>
        <mxCell id="cjDanuY9SotgmuhazIwL-15" value="Cloud" style="text;strokeColor=none;align=center;fillColor=none;html=1;verticalAlign=middle;whiteSpace=wrap;rounded=0;" vertex="1" parent="1">
          <mxGeometry x="50" y="210" width="60" height="30" as="geometry" />
        </mxCell>
        <mxCell id="cjDanuY9SotgmuhazIwL-16" value="RedTeam Resource Group" style="text;strokeColor=none;align=center;fillColor=none;html=1;verticalAlign=middle;whiteSpace=wrap;rounded=0;" vertex="1" parent="1">
          <mxGeometry x="150" y="10" width="170" height="30" as="geometry" />
        </mxCell>
        <mxCell id="cjDanuY9SotgmuhazIwL-17" value="" style="rounded=1;whiteSpace=wrap;html=1;" vertex="1" parent="1">
          <mxGeometry x="245" y="120" width="420" height="440" as="geometry" />
        </mxCell>
        <mxCell id="cjDanuY9SotgmuhazIwL-18" value="RedTeam NSG" style="text;strokeColor=none;align=center;fillColor=none;html=1;verticalAlign=middle;whiteSpace=wrap;rounded=0;" vertex="1" parent="1">
          <mxGeometry x="320" y="120" width="122.44" height="30" as="geometry" />
        </mxCell>
        <mxCell id="cjDanuY9SotgmuhazIwL-19" value="" style="shape=image;verticalLabelPosition=bottom;labelBackgroundColor=default;verticalAlign=top;aspect=fixed;imageAspect=0;image=data:image/png,iVBORw0KGgoAAAANSUhEUgAAAJoAAAB7CAMAAAC7OWkCAAAAXVBMVEUAvPL///8Au/IbwPM3xvQAuPHz/f+S3fjh9f0qxPRt0vZOyPTB6/vO7/z7/v8AtvGN1vZ+0/Z/1/e55/puzvVbzPWd3Pja9P3r+f6w5vqJ2vif4flCxPSp4/rH7/xA94LtAAAErklEQVR4nO2cia6jOgyGs2D2ZQrNsLTl/R/z2kDnclimEKBBI37pSLSF5DsJOLGdwDjnrnNXQaACq5Mcix2nXi0e1R4Ed/+RIxbjPJQgPuhAMjZVH7CM0EI4tGY9Ccg4y+UJyZCN5ewBpimmBRXzT4om7ux+yv5EtICps6IpFpwVzTozmnWhrdWFpiPhnRdNsnMOoReani40HV1oOvqn0MjdaXys9m/RJc15orvyMDTwXlkW1nUd5REpdz8qaoXXhFlWWkvn+2vRhLL5NsXVQrbVaFvJkG1hhSvRBNtMxuPngWh51lM4o2hK7tFoVQKaqo5Gc3SdavHrQrvQToq2puyPaAKS+V+NthrIR5HKud8NoglRFWSS/ZkQrDE0Ab7bDUa1SqZKNYUGQdgbKEtv4iQzaAKqn5OSIh03XIu2MGq2F5pQLh8qH8U7zaA94hGaPZo0GkEDUPWArH7CCdAgfUgAP//Rm4A2blC0CTSHuz6iOO9eLRxsx9TlgxNNoNEUMQogkWVjOV4yARXh0RDttg5tjWY7tLVleHdZoZ1ZAM/Wxg28TmNo+ExiP4oAQDw6G8dOg0aGFs+5Fe+PZ0LjPE16H86FViW/zotWXWgX2mFo/dBWH60YjqHfR0NvpRyjFeNJkQE0nOQG9U80u5Sj4KgRNIJLix4aDvZjAkNo2KvCwVvOJ7Tcn/aoTKFhwz1LnmLrVWy6dnE3hUZwKgBvys/r0GJjaOTA/yWZYLLVPl1+drTl3vuqslu05NNKvBlBc68difaQnqZuR7faNsXeedFWJILWsEH+ue4Pyo9Kn7FhaGM12cL+XJ8PFdIf61aV44xf7lS328/zlFLB4uq0sshjowD9qW0n1WSy9Ff47pV7F8EwvlYstBFfQBv2qLu5yL3QrCFatHVN7XGtlp0GzR89oFuL3QdNgBib4tvkHPxLaG/LIWQTghworp7ij/X4PhqTlkpf0Thn0NqP+pX6gSXZwlU0u6FBxse5gjlF6yvZhrZcGg/FFrQyther/ira9HA6J43S/6X1a1+T8M6LZl1o63Wh6ehC09GFpqMLTUc7oIk/CYL2aK8tuDugWX5XgvB8j7bqsjcruQb6Lt8OaHkXlhJPm1dAiTS7DSSDX7huvgVtaVBpRvDqYtq02MODJrvdeu5NLC7Wn6hu3n0mFOfNAp0k564gNHT86N8lhz7nsX7B2zfGAUckmpRy/gJCcwo8wO8f3L6bRUtCzrEM6k/VtJofctoVDjZ/GEajdJ0DTISUNIbfCJgSJHZ0HJhG8woe4fPZdCOh+dLmGSCqC4bRGERoLsCnpmrRoOY2Q1PiJCo2jOZT7phuMNZ2KH2RppRWMY0msANzhjc9vNHoC5eHYiva9h3ceFvFVfOYMnpClUia1WspbEXbviW/ySXyPGEtmiXa5CI+teZbjVEgt8mS0mpIHAqkS/aXBgTDaGT4edGMxdheNGpCygvsX0Szt4yhe7xjQUjZLVLAowax/SzWJeeGaLu8meL/MFV3sH1CiWj+eSfg2kn+gyUCls8sZTEtCBkvN+YejlHi0HuKysE+mXUrJA6S07xCibtOn2zi3U4L5Vn6UkFfioa6/wD4QkfcZ0zLAQAAAABJRU5ErkJggg==;" vertex="1" parent="1">
          <mxGeometry x="280" y="370" width="75.12" height="60" as="geometry" />
        </mxCell>
        <mxCell id="cjDanuY9SotgmuhazIwL-20" value="" style="shape=image;verticalLabelPosition=bottom;labelBackgroundColor=default;verticalAlign=top;aspect=fixed;imageAspect=0;image=data:image/png,iVBORw0KGgoAAAANSUhEUgAAAJoAAAB7CAMAAAC7OWkCAAAAXVBMVEUAvPL///8Au/IbwPM3xvQAuPHz/f+S3fjh9f0qxPRt0vZOyPTB6/vO7/z7/v8AtvGN1vZ+0/Z/1/e55/puzvVbzPWd3Pja9P3r+f6w5vqJ2vif4flCxPSp4/rH7/xA94LtAAAErklEQVR4nO2cia6jOgyGs2D2ZQrNsLTl/R/z2kDnclimEKBBI37pSLSF5DsJOLGdwDjnrnNXQaACq5Mcix2nXi0e1R4Ed/+RIxbjPJQgPuhAMjZVH7CM0EI4tGY9Ccg4y+UJyZCN5ewBpimmBRXzT4om7ux+yv5EtICps6IpFpwVzTozmnWhrdWFpiPhnRdNsnMOoReani40HV1oOvqn0MjdaXys9m/RJc15orvyMDTwXlkW1nUd5REpdz8qaoXXhFlWWkvn+2vRhLL5NsXVQrbVaFvJkG1hhSvRBNtMxuPngWh51lM4o2hK7tFoVQKaqo5Gc3SdavHrQrvQToq2puyPaAKS+V+NthrIR5HKud8NoglRFWSS/ZkQrDE0Ab7bDUa1SqZKNYUGQdgbKEtv4iQzaAKqn5OSIh03XIu2MGq2F5pQLh8qH8U7zaA94hGaPZo0GkEDUPWArH7CCdAgfUgAP//Rm4A2blC0CTSHuz6iOO9eLRxsx9TlgxNNoNEUMQogkWVjOV4yARXh0RDttg5tjWY7tLVleHdZoZ1ZAM/Wxg28TmNo+ExiP4oAQDw6G8dOg0aGFs+5Fe+PZ0LjPE16H86FViW/zotWXWgX2mFo/dBWH60YjqHfR0NvpRyjFeNJkQE0nOQG9U80u5Sj4KgRNIJLix4aDvZjAkNo2KvCwVvOJ7Tcn/aoTKFhwz1LnmLrVWy6dnE3hUZwKgBvys/r0GJjaOTA/yWZYLLVPl1+drTl3vuqslu05NNKvBlBc68difaQnqZuR7faNsXeedFWJILWsEH+ue4Pyo9Kn7FhaGM12cL+XJ8PFdIf61aV44xf7lS328/zlFLB4uq0sshjowD9qW0n1WSy9Ff47pV7F8EwvlYstBFfQBv2qLu5yL3QrCFatHVN7XGtlp0GzR89oFuL3QdNgBib4tvkHPxLaG/LIWQTghworp7ij/X4PhqTlkpf0Thn0NqP+pX6gSXZwlU0u6FBxse5gjlF6yvZhrZcGg/FFrQyther/ira9HA6J43S/6X1a1+T8M6LZl1o63Wh6ehC09GFpqMLTUc7oIk/CYL2aK8tuDugWX5XgvB8j7bqsjcruQb6Lt8OaHkXlhJPm1dAiTS7DSSDX7huvgVtaVBpRvDqYtq02MODJrvdeu5NLC7Wn6hu3n0mFOfNAp0k564gNHT86N8lhz7nsX7B2zfGAUckmpRy/gJCcwo8wO8f3L6bRUtCzrEM6k/VtJofctoVDjZ/GEajdJ0DTISUNIbfCJgSJHZ0HJhG8woe4fPZdCOh+dLmGSCqC4bRGERoLsCnpmrRoOY2Q1PiJCo2jOZT7phuMNZ2KH2RppRWMY0msANzhjc9vNHoC5eHYiva9h3ceFvFVfOYMnpClUia1WspbEXbviW/ySXyPGEtmiXa5CI+teZbjVEgt8mS0mpIHAqkS/aXBgTDaGT4edGMxdheNGpCygvsX0Szt4yhe7xjQUjZLVLAowax/SzWJeeGaLu8meL/MFV3sH1CiWj+eSfg2kn+gyUCls8sZTEtCBkvN+YejlHi0HuKysE+mXUrJA6S07xCibtOn2zi3U4L5Vn6UkFfioa6/wD4QkfcZ0zLAQAAAABJRU5ErkJggg==;" vertex="1" parent="1">
          <mxGeometry x="480" y="370" width="75.12" height="60" as="geometry" />
        </mxCell>
        <mxCell id="cjDanuY9SotgmuhazIwL-21" value="" style="shape=image;verticalLabelPosition=bottom;labelBackgroundColor=default;verticalAlign=top;aspect=fixed;imageAspect=0;image=data:image/png,iVBORw0KGgoAAAANSUhEUgAAAJoAAAB7CAMAAAC7OWkCAAAAXVBMVEUAvPL///8Au/IbwPM3xvQAuPHz/f+S3fjh9f0qxPRt0vZOyPTB6/vO7/z7/v8AtvGN1vZ+0/Z/1/e55/puzvVbzPWd3Pja9P3r+f6w5vqJ2vif4flCxPSp4/rH7/xA94LtAAAErklEQVR4nO2cia6jOgyGs2D2ZQrNsLTl/R/z2kDnclimEKBBI37pSLSF5DsJOLGdwDjnrnNXQaACq5Mcix2nXi0e1R4Ed/+RIxbjPJQgPuhAMjZVH7CM0EI4tGY9Ccg4y+UJyZCN5ewBpimmBRXzT4om7ux+yv5EtICps6IpFpwVzTozmnWhrdWFpiPhnRdNsnMOoReani40HV1oOvqn0MjdaXys9m/RJc15orvyMDTwXlkW1nUd5REpdz8qaoXXhFlWWkvn+2vRhLL5NsXVQrbVaFvJkG1hhSvRBNtMxuPngWh51lM4o2hK7tFoVQKaqo5Gc3SdavHrQrvQToq2puyPaAKS+V+NthrIR5HKud8NoglRFWSS/ZkQrDE0Ab7bDUa1SqZKNYUGQdgbKEtv4iQzaAKqn5OSIh03XIu2MGq2F5pQLh8qH8U7zaA94hGaPZo0GkEDUPWArH7CCdAgfUgAP//Rm4A2blC0CTSHuz6iOO9eLRxsx9TlgxNNoNEUMQogkWVjOV4yARXh0RDttg5tjWY7tLVleHdZoZ1ZAM/Wxg28TmNo+ExiP4oAQDw6G8dOg0aGFs+5Fe+PZ0LjPE16H86FViW/zotWXWgX2mFo/dBWH60YjqHfR0NvpRyjFeNJkQE0nOQG9U80u5Sj4KgRNIJLix4aDvZjAkNo2KvCwVvOJ7Tcn/aoTKFhwz1LnmLrVWy6dnE3hUZwKgBvys/r0GJjaOTA/yWZYLLVPl1+drTl3vuqslu05NNKvBlBc68difaQnqZuR7faNsXeedFWJILWsEH+ue4Pyo9Kn7FhaGM12cL+XJ8PFdIf61aV44xf7lS328/zlFLB4uq0sshjowD9qW0n1WSy9Ff47pV7F8EwvlYstBFfQBv2qLu5yL3QrCFatHVN7XGtlp0GzR89oFuL3QdNgBib4tvkHPxLaG/LIWQTghworp7ij/X4PhqTlkpf0Thn0NqP+pX6gSXZwlU0u6FBxse5gjlF6yvZhrZcGg/FFrQyther/ira9HA6J43S/6X1a1+T8M6LZl1o63Wh6ehC09GFpqMLTUc7oIk/CYL2aK8tuDugWX5XgvB8j7bqsjcruQb6Lt8OaHkXlhJPm1dAiTS7DSSDX7huvgVtaVBpRvDqYtq02MODJrvdeu5NLC7Wn6hu3n0mFOfNAp0k564gNHT86N8lhz7nsX7B2zfGAUckmpRy/gJCcwo8wO8f3L6bRUtCzrEM6k/VtJofctoVDjZ/GEajdJ0DTISUNIbfCJgSJHZ0HJhG8woe4fPZdCOh+dLmGSCqC4bRGERoLsCnpmrRoOY2Q1PiJCo2jOZT7phuMNZ2KH2RppRWMY0msANzhjc9vNHoC5eHYiva9h3ceFvFVfOYMnpClUia1WspbEXbviW/ySXyPGEtmiXa5CI+teZbjVEgt8mS0mpIHAqkS/aXBgTDaGT4edGMxdheNGpCygvsX0Szt4yhe7xjQUjZLVLAowax/SzWJeeGaLu8meL/MFV3sH1CiWj+eSfg2kn+gyUCls8sZTEtCBkvN+YejlHi0HuKysE+mXUrJA6S07xCibtOn2zi3U4L5Vn6UkFfioa6/wD4QkfcZ0zLAQAAAABJRU5ErkJggg==;" vertex="1" parent="1">
          <mxGeometry x="570" y="370" width="75.12" height="60" as="geometry" />
        </mxCell>
        <mxCell id="cjDanuY9SotgmuhazIwL-22" value="JumpBox" style="text;strokeColor=none;align=center;fillColor=none;html=1;verticalAlign=middle;whiteSpace=wrap;rounded=0;" vertex="1" parent="1">
          <mxGeometry x="287.56" y="420" width="60" height="30" as="geometry" />
        </mxCell>
        <mxCell id="cjDanuY9SotgmuhazIwL-23" value="Web1&lt;br&gt;10.0.0.8&lt;br&gt;DVWA" style="text;strokeColor=none;align=center;fillColor=none;html=1;verticalAlign=middle;whiteSpace=wrap;rounded=0;" vertex="1" parent="1">
          <mxGeometry x="487.56" y="440" width="60" height="30" as="geometry" />
        </mxCell>
        <mxCell id="cjDanuY9SotgmuhazIwL-24" value="Web2&lt;br&gt;10.0.0.9&lt;br&gt;DVWA" style="text;strokeColor=none;align=center;fillColor=none;html=1;verticalAlign=middle;whiteSpace=wrap;rounded=0;" vertex="1" parent="1">
          <mxGeometry x="577.56" y="440" width="60" height="30" as="geometry" />
        </mxCell>
        <mxCell id="cjDanuY9SotgmuhazIwL-25" value="" style="endArrow=classic;html=1;rounded=0;entryX=0;entryY=0.5;entryDx=0;entryDy=0;" edge="1" parent="1" target="cjDanuY9SotgmuhazIwL-19">
          <mxGeometry width="50" height="50" relative="1" as="geometry">
            <mxPoint x="130" y="400" as="sourcePoint" />
            <mxPoint x="180" y="340" as="targetPoint" />
          </mxGeometry>
        </mxCell>
        <mxCell id="cjDanuY9SotgmuhazIwL-26" value="SSH (22)" style="text;strokeColor=none;align=center;fillColor=none;html=1;verticalAlign=middle;whiteSpace=wrap;rounded=0;" vertex="1" parent="1">
          <mxGeometry x="170" y="370" width="60" height="30" as="geometry" />
        </mxCell>
        <mxCell id="cjDanuY9SotgmuhazIwL-27" value="Ansible" style="text;strokeColor=none;align=center;fillColor=none;html=1;verticalAlign=middle;whiteSpace=wrap;rounded=0;" vertex="1" parent="1">
          <mxGeometry x="287.56" y="440" width="60" height="30" as="geometry" />
        </mxCell>
        <mxCell id="cjDanuY9SotgmuhazIwL-28" value="" style="shape=image;verticalLabelPosition=bottom;labelBackgroundColor=default;verticalAlign=top;aspect=fixed;imageAspect=0;image=data:image/png,iVBORw0KGgoAAAANSUhEUgAAAJQAAAB6CAMAAABurIoUAAAAkFBMVEX///8Ab8AAkdLS0tIAbL8AZbxVispGiMq/1OsAab4AZ734+/4Ai9AAj9GOsdv7/v5ikc3Q3+8AYrsAX7pqsN4Ahs7w9vuOxOba6/aJv+QAgMms0etLpNro8/oAXLljl9A0esR7pNUAdsQtmdW72u/O5fSey+l6uuE0j89aqdt/tuByrNpJltKow+OzyOWbud6XICd3AAAFcUlEQVR4nO2cD3OiOhDADReqYiJCRVGhqKh37Tv1+3+7ByTBQGLlsaE4b9y56fSUhF83m/0XcTB4PvnVN4BOXlBNxRTUJNwsl6dwYWQyQ1CbiAQk+5cuJwZmMwIVpgG1CqGEHODzmYAKLY7EuDbPADVJZSaLBscngJoTqyop1NzhUMc6k0VOvUP9VqBo2jtU1aIYVdgzVExVKKhbMAClMFkE6BW6gepbUwNLY1NATwWHihQoagEDIBzqECirNwdOCYeaKKqCegQTYaauqmAFndFElnCqUJEIPKGRfOp0c6CUzF3wfGYyz2PKAyAxkE2Zy9EPfwi16HoFV9PAHJT7hhFC/sjIZMaqmQLKfkE9lBdUU3lBNZWnhHLfxhjj5/JT8eFP3uBYr6BZSyFGoA7zLOix2Gd9nuB9FxP5VBpIWQIlFFogw6EWc1LLPClJey5G41Sp2nN1wWosIFRsEQnltogBKK2CQS3KRgIhNE3zn2IJIaUfDGpORcI5P4RxHB+XghJU+4GgRB0TfMbiJXcpnMNXP1B88Wi1n3HkdTxgASFQG2bk9cbdkRk8oE6GQEV3bs5haawb1DFUyBYvVe/9yWhbuwUAFFMI0RTpxwBm6gCoVQEVaEKKW9h6+34sAKpYJEp1/oj5L9IDVGHnNNLVxKsCat22XO4Galms7LqtUwcvX6q78xczt7YzA6DYnYnmIMZlSrR6gDoxdWhSp0XxDm3dPQNA/cOc56f6DsOlf9ueZrWHmto8SVECb8zzFzRrSdUMSrPDrj7mIU453hMHgMieNZqqFdQi+fB3tTtffYT2PMOLqu+Js7Y1RvZblcGd+h9DzwhUYmcFeVLZ+ueMCSHR6IykULP44q/S/Ap7V6GaZsPG24eL2gAqzLsE6EOOcRc7f0moKiseypP/TVndrItL/J00bLEvGg4XA1CjcT77u6T1S6EnhJy/ZZ0QRKvN5vR5qxwixp3pSoJio6ZdQI34/ZyEZwqMKxfxPxK5Z4dd5V9/AsrDXAezbM1+K8dFBVO+I6/v/LqSqjsoz2ZQDtvvp3rVnpeiLEO++jVddQYVYs405PvqGNUKd2KJSmInVvDcLVSIGNN4WG7sycYq2y40M63VLWnfcV3xDdcRVCyYthW3dfiKeBXxtam8seN7wr90B8Ucjc4BLt7Qfr8fK+3FhK9g0Q3tBGoxLH5FeKtUC/case6M6wp73UAttuzPxkitYO53h2d8kO11ATURetIwfQPlimE4nJiHSmw+uS7Mf9NHLxd9H+4NQ+Etn9rRph7fNfcnYigyrSk+JVY32EOozBjZFOahKm7wv0ENwi3uEOruOceDs5lwjzuDwpeBW8pjKOlaZuPdaCqZ3SSRvboOaipfvO0OCkviyLFGA5W8y1d3aeiy+JLRq1AevjOsWyhbml2FEknzD0M90JTTKZSNtTLeSi1YFcpN7ozzjUAN9fImxxuNocfJnYHX+h1aQDWSpzzYfkE1lRdUU3lBNZUXVFN5HijvehadgzpUeLm0fyYEAjV1bF80pWtQI+T7wz6Oa0d5n8dJdFBHH1e7nT8GxVpidqJCeTy/6w0KObs6lMfqKYx7gPJEm25XhRKNtcfJXAdQg4toaU5lKNGAbG9SMJcgmvxZBVFChbxvAGACOk+pKc2hRIeF238fUIOraLReCyjnbIIJHGamXFe88txzprbHj2agBomm5hwPYR+rhAfknULlDIGPQhp4mKeuq3H7oGcMqmz/ImFdUCYj+dREpqoU8z1CDeIbFd4/Prd+KGYyTxHuEPYNMBn76LdIDJ7no9+ZeLmuMHqCHF0W7x2hDzNMBr/EwXMMPUxg9JslLmdTM/2vv+7CqLygmsqvfwG5/Vmv8d9ZJgAAAABJRU5ErkJggg==;" vertex="1" parent="1">
          <mxGeometry x="530" y="60" width="72.79" height="60" as="geometry" />
        </mxCell>
        <mxCell id="cjDanuY9SotgmuhazIwL-31" value="" style="endArrow=classic;html=1;rounded=0;" edge="1" parent="1">
          <mxGeometry width="50" height="50" relative="1" as="geometry">
            <mxPoint x="115" y="210" as="sourcePoint" />
            <mxPoint x="235" y="210" as="targetPoint" />
          </mxGeometry>
        </mxCell>
        <mxCell id="cjDanuY9SotgmuhazIwL-32" value="" style="endArrow=classic;html=1;rounded=0;" edge="1" parent="1">
          <mxGeometry width="50" height="50" relative="1" as="geometry">
            <mxPoint x="230" y="190" as="sourcePoint" />
            <mxPoint x="230" y="80" as="targetPoint" />
          </mxGeometry>
        </mxCell>
        <mxCell id="cjDanuY9SotgmuhazIwL-33" value="" style="endArrow=classic;html=1;rounded=0;" edge="1" parent="1">
          <mxGeometry width="50" height="50" relative="1" as="geometry">
            <mxPoint x="260" y="89.5" as="sourcePoint" />
            <mxPoint x="530" y="89.5" as="targetPoint" />
          </mxGeometry>
        </mxCell>
        <mxCell id="cjDanuY9SotgmuhazIwL-36" value="Load Balancer" style="text;strokeColor=none;align=center;fillColor=none;html=1;verticalAlign=middle;whiteSpace=wrap;rounded=0;" vertex="1" parent="1">
          <mxGeometry x="522.79" y="40" width="80" height="30" as="geometry" />
        </mxCell>
        <mxCell id="cjDanuY9SotgmuhazIwL-37" value="" style="endArrow=classic;html=1;rounded=0;entryX=0.5;entryY=0;entryDx=0;entryDy=0;exitX=0.5;exitY=1;exitDx=0;exitDy=0;" edge="1" parent="1" source="cjDanuY9SotgmuhazIwL-28" target="cjDanuY9SotgmuhazIwL-20">
          <mxGeometry width="50" height="50" relative="1" as="geometry">
            <mxPoint x="517.71" y="230" as="sourcePoint" />
            <mxPoint x="520" y="300" as="targetPoint" />
            <Array as="points">
              <mxPoint x="518" y="230" />
            </Array>
          </mxGeometry>
        </mxCell>
        <mxCell id="cjDanuY9SotgmuhazIwL-38" value="" style="endArrow=classic;html=1;rounded=0;exitX=0.77;exitY=0.01;exitDx=0;exitDy=0;exitPerimeter=0;entryX=0.5;entryY=0;entryDx=0;entryDy=0;" edge="1" parent="1" source="cjDanuY9SotgmuhazIwL-17" target="cjDanuY9SotgmuhazIwL-21">
          <mxGeometry width="50" height="50" relative="1" as="geometry">
            <mxPoint x="300" y="280" as="sourcePoint" />
            <mxPoint x="350" y="230" as="targetPoint" />
            <Array as="points">
              <mxPoint x="608" y="230" />
            </Array>
          </mxGeometry>
        </mxCell>
        <mxCell id="cjDanuY9SotgmuhazIwL-39" value="" style="endArrow=classic;html=1;rounded=0;exitX=1;exitY=0.5;exitDx=0;exitDy=0;entryX=0.447;entryY=1.204;entryDx=0;entryDy=0;entryPerimeter=0;" edge="1" parent="1" source="cjDanuY9SotgmuhazIwL-19" target="cjDanuY9SotgmuhazIwL-44">
          <mxGeometry width="50" height="50" relative="1" as="geometry">
            <mxPoint x="290" y="340" as="sourcePoint" />
            <mxPoint x="518" y="460" as="targetPoint" />
            <Array as="points">
              <mxPoint x="355" y="530" />
            </Array>
          </mxGeometry>
        </mxCell>
        <mxCell id="cjDanuY9SotgmuhazIwL-41" value="SSH (22)" style="text;strokeColor=none;align=center;fillColor=none;html=1;verticalAlign=middle;whiteSpace=wrap;rounded=0;" vertex="1" parent="1">
          <mxGeometry x="395" y="500" width="60" height="30" as="geometry" />
        </mxCell>
        <mxCell id="cjDanuY9SotgmuhazIwL-42" value="" style="shape=image;verticalLabelPosition=bottom;labelBackgroundColor=default;verticalAlign=top;aspect=fixed;imageAspect=0;image=data:image/png,iVBORw0KGgoAAAANSUhEUgAAAHwAAAB8CAMAAACcwCSMAAAAYFBMVEX///8AAAAGBgb29vYlJSV6enq6urrQ0NA5OTlbW1vy8vLq6uqKiorBwcHa2tpwcHBJSUmurq6ioqJWVlYgICBRUVGRkZEuLi7g4OAWFhZkZGREREQQEBA/Pz+EhIQ0NDREh1o5AAACuElEQVRoge2a6daqIBRAMRwKpzQztdL3f8tb3UAqidnW+tbZf5JMd8BhVIQAAAAAAAAAAPi7kJSCV3fjQ0CJVpeTickP68u3TL4DOcj/uPzE5MfV5agunwz5+vI1iCm3/BGWSBAqWCL15c5ZzQYxyuYEXqPOxfIVot1CXmS2Y62F/BhMya/k9f1U/Rv5MyDbn8jr50mbvBvLr/RsZy5PZl+OWk6Op6/y+bq9uRwlDIwIOy4Q6lhiqYer5/8ZW9jNmOe2mh1gFVEqRNjxmKKCJbJb3lgiR5gdR88q3szyoNBwYxYrt0nxS8CNfMDxfXsxn6g+5TrNDe+5UFKL9g855uU73BX3OFEZ/VzIX3LeX/vH53TIpO3OifwSLDNI9E7k8z3e+T7pciLn2vkblX85980bkmI/K8n5VeqnnO9lXpANNEMT/qcpUbEJaSJB1YUmQox39Fd9hNKAft/TKk2W3WeJ+5Z3Cn+M306If/WgbpbcvbeZLv3rXV4LCv0i7mmLfbBxgKCy72UuzncqvsoJl299fCu/3oJt+7W6R/kdTOin6zBWsmHVk1xtIpPJb2SCkttTnWdqcvFYYIPizLny4R7U3PwY4g7VpWLnwa2+dPcgV18ju3eXym40OJdrLBKdt7VR3S2afJijsyeDFycf5ugtT3dO3ar9y5PYpTvUnK51vUO59p6Aw3LX34Zy171rVvgdbl/Ajknf7ayfaYiJ3E1TDw333lzMKBrjfb9JfnMJk1GZP7CeUhjE+YxlzFltMyMUWahP1o+5zPu50ry6be29m6d7Jsu2xu6RBkes29lMtcPXNlKtsDvHDiqbpyi/bHC8lPdo+QRrEVKJNzEZmcdnyHEr2s0LgmNW+d7ZutV/3kblbn+6B+GlCbfHoczq3L+XA5PHC0mEkPVfRwIAAAAAAAAA4Gf8A5OkKrCEoW6bAAAAAElFTkSuQmCC;" vertex="1" parent="1">
          <mxGeometry x="587.56" y="480" width="40" height="40" as="geometry" />
        </mxCell>
        <mxCell id="cjDanuY9SotgmuhazIwL-43" value="" style="shape=image;verticalLabelPosition=bottom;labelBackgroundColor=default;verticalAlign=top;aspect=fixed;imageAspect=0;image=data:image/png,iVBORw0KGgoAAAANSUhEUgAAAHwAAAB8CAMAAACcwCSMAAAAYFBMVEX///8AAAAGBgb29vYlJSV6enq6urrQ0NA5OTlbW1vy8vLq6uqKiorBwcHa2tpwcHBJSUmurq6ioqJWVlYgICBRUVGRkZEuLi7g4OAWFhZkZGREREQQEBA/Pz+EhIQ0NDREh1o5AAACuElEQVRoge2a6daqIBRAMRwKpzQztdL3f8tb3UAqidnW+tbZf5JMd8BhVIQAAAAAAAAAAPi7kJSCV3fjQ0CJVpeTickP68u3TL4DOcj/uPzE5MfV5agunwz5+vI1iCm3/BGWSBAqWCL15c5ZzQYxyuYEXqPOxfIVot1CXmS2Y62F/BhMya/k9f1U/Rv5MyDbn8jr50mbvBvLr/RsZy5PZl+OWk6Op6/y+bq9uRwlDIwIOy4Q6lhiqYer5/8ZW9jNmOe2mh1gFVEqRNjxmKKCJbJb3lgiR5gdR88q3szyoNBwYxYrt0nxS8CNfMDxfXsxn6g+5TrNDe+5UFKL9g855uU73BX3OFEZ/VzIX3LeX/vH53TIpO3OifwSLDNI9E7k8z3e+T7pciLn2vkblX85980bkmI/K8n5VeqnnO9lXpANNEMT/qcpUbEJaSJB1YUmQox39Fd9hNKAft/TKk2W3WeJ+5Z3Cn+M306If/WgbpbcvbeZLv3rXV4LCv0i7mmLfbBxgKCy72UuzncqvsoJl299fCu/3oJt+7W6R/kdTOin6zBWsmHVk1xtIpPJb2SCkttTnWdqcvFYYIPizLny4R7U3PwY4g7VpWLnwa2+dPcgV18ju3eXym40OJdrLBKdt7VR3S2afJijsyeDFycf5ugtT3dO3ar9y5PYpTvUnK51vUO59p6Aw3LX34Zy171rVvgdbl/Ajknf7ayfaYiJ3E1TDw333lzMKBrjfb9JfnMJk1GZP7CeUhjE+YxlzFltMyMUWahP1o+5zPu50ry6be29m6d7Jsu2xu6RBkes29lMtcPXNlKtsDvHDiqbpyi/bHC8lPdo+QRrEVKJNzEZmcdnyHEr2s0LgmNW+d7ZutV/3kblbn+6B+GlCbfHoczq3L+XA5PHC0mEkPVfRwIAAAAAAAAA4Gf8A5OkKrCEoW6bAAAAAElFTkSuQmCC;" vertex="1" parent="1">
          <mxGeometry x="297.56" y="460" width="40" height="40" as="geometry" />
        </mxCell>
        <mxCell id="cjDanuY9SotgmuhazIwL-44" value="" style="shape=image;verticalLabelPosition=bottom;labelBackgroundColor=default;verticalAlign=top;aspect=fixed;imageAspect=0;image=data:image/png,iVBORw0KGgoAAAANSUhEUgAAAHwAAAB8CAMAAACcwCSMAAAAYFBMVEX///8AAAAGBgb29vYlJSV6enq6urrQ0NA5OTlbW1vy8vLq6uqKiorBwcHa2tpwcHBJSUmurq6ioqJWVlYgICBRUVGRkZEuLi7g4OAWFhZkZGREREQQEBA/Pz+EhIQ0NDREh1o5AAACuElEQVRoge2a6daqIBRAMRwKpzQztdL3f8tb3UAqidnW+tbZf5JMd8BhVIQAAAAAAAAAAPi7kJSCV3fjQ0CJVpeTickP68u3TL4DOcj/uPzE5MfV5agunwz5+vI1iCm3/BGWSBAqWCL15c5ZzQYxyuYEXqPOxfIVot1CXmS2Y62F/BhMya/k9f1U/Rv5MyDbn8jr50mbvBvLr/RsZy5PZl+OWk6Op6/y+bq9uRwlDIwIOy4Q6lhiqYer5/8ZW9jNmOe2mh1gFVEqRNjxmKKCJbJb3lgiR5gdR88q3szyoNBwYxYrt0nxS8CNfMDxfXsxn6g+5TrNDe+5UFKL9g855uU73BX3OFEZ/VzIX3LeX/vH53TIpO3OifwSLDNI9E7k8z3e+T7pciLn2vkblX85980bkmI/K8n5VeqnnO9lXpANNEMT/qcpUbEJaSJB1YUmQox39Fd9hNKAft/TKk2W3WeJ+5Z3Cn+M306If/WgbpbcvbeZLv3rXV4LCv0i7mmLfbBxgKCy72UuzncqvsoJl299fCu/3oJt+7W6R/kdTOin6zBWsmHVk1xtIpPJb2SCkttTnWdqcvFYYIPizLny4R7U3PwY4g7VpWLnwa2+dPcgV18ju3eXym40OJdrLBKdt7VR3S2afJijsyeDFycf5ugtT3dO3ar9y5PYpTvUnK51vUO59p6Aw3LX34Zy171rVvgdbl/Ajknf7ayfaYiJ3E1TDw333lzMKBrjfb9JfnMJk1GZP7CeUhjE+YxlzFltMyMUWahP1o+5zPu50ry6be29m6d7Jsu2xu6RBkes29lMtcPXNlKtsDvHDiqbpyi/bHC8lPdo+QRrEVKJNzEZmcdnyHEr2s0LgmNW+d7ZutV/3kblbn+6B+GlCbfHoczq3L+XA5PHC0mEkPVfRwIAAAAAAAAA4Gf8A5OkKrCEoW6bAAAAAElFTkSuQmCC;" vertex="1" parent="1">
          <mxGeometry x="497.56" y="480" width="40" height="40" as="geometry" />
        </mxCell>
        <mxCell id="cjDanuY9SotgmuhazIwL-50" value="" style="endArrow=classic;html=1;rounded=0;entryX=0.525;entryY=1.211;entryDx=0;entryDy=0;entryPerimeter=0;" edge="1" parent="1" target="cjDanuY9SotgmuhazIwL-42">
          <mxGeometry width="50" height="50" relative="1" as="geometry">
            <mxPoint x="510" y="528" as="sourcePoint" />
            <mxPoint x="480" y="320" as="targetPoint" />
          </mxGeometry>
        </mxCell>
        <mxCell id="cjDanuY9SotgmuhazIwL-52" value="" style="endArrow=classic;html=1;rounded=0;" edge="1" parent="1" target="cjDanuY9SotgmuhazIwL-51">
          <mxGeometry width="50" height="50" relative="1" as="geometry">
            <mxPoint x="80" y="310" as="sourcePoint" />
            <mxPoint x="80" y="240" as="targetPoint" />
          </mxGeometry>
        </mxCell>
        <mxCell id="cjDanuY9SotgmuhazIwL-51" value="HTTP (80)" style="text;strokeColor=none;align=center;fillColor=none;html=1;verticalAlign=middle;whiteSpace=wrap;rounded=0;rotation=90;" vertex="1" parent="1">
          <mxGeometry x="60" y="270" width="60" height="30" as="geometry" />
        </mxCell>
        <mxCell id="cjDanuY9SotgmuhazIwL-53" value="HTTP (80)" style="text;strokeColor=none;align=center;fillColor=none;html=1;verticalAlign=middle;whiteSpace=wrap;rounded=0;rotation=0;" vertex="1" parent="1">
          <mxGeometry x="150" y="210" width="60" height="30" as="geometry" />
        </mxCell>
        <mxCell id="cjDanuY9SotgmuhazIwL-55" value="HTTP (80)" style="text;strokeColor=none;align=center;fillColor=none;html=1;verticalAlign=middle;whiteSpace=wrap;rounded=0;rotation=0;" vertex="1" parent="1">
          <mxGeometry x="537.56" y="180" width="60" height="30" as="geometry" />
        </mxCell>
        <mxCell id="cjDanuY9SotgmuhazIwL-57" value="RedTeamNet (10.0.0.0/16)" style="text;strokeColor=none;align=center;fillColor=none;html=1;verticalAlign=middle;whiteSpace=wrap;rounded=0;" vertex="1" parent="1">
          <mxGeometry x="277.56" y="90" width="110" height="30" as="geometry" />
        </mxCell>
        <mxCell id="cjDanuY9SotgmuhazIwL-58" value="SubNet (10.0.0.0/24)" style="text;strokeColor=none;align=center;fillColor=none;html=1;verticalAlign=middle;whiteSpace=wrap;rounded=0;" vertex="1" parent="1">
          <mxGeometry x="387.56" y="90" width="60" height="30" as="geometry" />
        </mxCell>
      </root>
    </mxGraphModel>
  </diagram>
</mxfile>
